<?xml version="1.0" encoding="UTF-8"?>
<svg id="Ebene_2" data-name="Ebene 2" xmlns="http://www.w3.org/2000/svg" viewBox="0 0 117.53 116.4">
  <defs>
    <style>
      .cls-1 {
        fill: #2d68ac;
      }

      .cls-2 {
        fill: #803689;
      }
    </style>
  </defs>
  <g id="declinaison2">
    <g>
      <g>
        <g>
          <path class="cls-2" d="M87.14,97.34c-2.21.27-4.44.51-6.66.57-1.03.03-2.06.02-3.09-.04-1.15-.05-2.28-.19-3.37-.4-.24-.17-1.1-.15-1.32-.34-.23-.19-1.03-.89-1.24-1.09-.9-.83-1.76-1.69-2.58-2.57-1.42-1.52-2.7-3.11-3.93-4.7-.8-1.04-1.59-2.08-2.39-3.09-1.16-1.56-2.37-3.07-3.65-4.54-.83-.96-1.69-1.91-2.58-2.84-3.63-3.81-7.7-7.27-11.97-10.22-.23-.1.13.1-.1,0-.71-.23-1.42-.45-2.14-.66-2.8-.82-5.67-1.45-8.54-1.79-.32-.04-.63-.08-.95-.11-1.48-.15-2.95-.21-4.38-.2-1.66.02-3.28.15-4.82.37-.04-.02-.18-.16-.22-.18,1.44-.44,2.93-.77,4.45-1.03,1.52-.26,3.06-.42,4.63-.52.7-.04,1.4-.06,2.1-.07,2.44-.02,4.9.12,7.34.43.08.01.43.05.51.07.12.02.55.3.66.32.91.44,1.81.91,2.7,1.4,3.95,2.2,7.78,4.78,11.39,7.66,2.22,1.76,4.35,3.65,6.39,5.63.33.32.65.63.97.96,1.69,1.69,3.32,3.45,4.88,5.26.21.29-.79.27-.59.56.62.22,1.24.44,1.85.67.93.35,1.84.7,2.75,1.05,1.53.61,3.05,1.24,4.6,1.83.44.17.88.33,1.32.5,1.15.44,2.33.87,3.56,1.24,1.71.54,3.5,1,5.41,1.37,0,.05-.02.11-.03.16-.16.83-.28,1.55-.38,2.23-.13.66-.24,1.3-.36,1.91-.06.02-.14.19-.2.21Z"/>
          <path class="cls-2" d="M20.3,112.96c0-.73.08-1.52.27-2.4.15-.7.37-1.44.67-2.23.04,0,.22-.08.27-.09.2.11.4.22.61.33,2.25,1.2,4.83,2.17,7.56,2.86.66.17,1.33.32,2,.46.26.12-.16.47.1.57,1.67-.22,3.38-.54,5.11-.97,4.28-1.07,8.64-2.66,12.87-4.73,1.32-.65,2.63-1.34,3.91-2.08,1.61-.92,3.19-1.91,4.73-2.96,1.05-.71,2.08-1.46,3.1-2.23,1.67-1.21,3.34-2.48,5.09-3.68.25-.16,1.14-.78,1.4-.94.22-.13,1.08.04,1.31-.09.12,0,.25-.01.37-.02,1.55-.06,3.14-.05,4.78.09.42.04.84.09,1.27.14,1.24.17,2.5.42,3.74.78.99.27,1.96.59,2.91.94,2.2.79,4.32,1.78,6.42,2.77.06.03.08.22.14.25.1.4.19.8.27,1.26-2.02-.37-4.01-.74-5.97-1.02-1.89-.3-3.75-.44-5.56-.52-1.79-.08-3.55-.07-5.27-.02-1.73.05-3.44.14-5.15.24-.26.18.74.2.47.39-1,.78-2,1.57-3.03,2.34-1.18.9-2.39,1.78-3.62,2.63-2.11,1.46-4.28,2.85-6.49,4.12-.17.1-.33.19-.5.29-4.77,2.73-9.75,4.98-14.77,6.7-.12,0-.6.25-.71.24-.08,0-.48-.02-.57-.03-1.95-.11-3.89-.29-5.83-.55-1.06-.15-2.12-.32-3.17-.51-1.49-.29-2.96-.61-4.42-1-1.46-.39-2.9-.83-4.31-1.36Z"/>
        </g>
        <path class="cls-1" d="M42.52,69.13c5.12,1.21,12.91,17.19,11.72,22.77-.71,3.32-13.95,15.92-16.61,17.23,1.49-1.15-8.16-14.5-7.71-16.58.96-4.47,3.51-18.29-.59-19.26s-10.53,11.48-11.48,15.95c-.44,2.08,7.98,10.18,8.85,11.89-1.88-2.38,6.05-10.48,6.76-13.8,1.19-5.58,3.95-19.41,9.07-18.2Z"/>
        <path class="cls-2" d="M42.41,89c-.75,3.49-11.65,12.36-15.18,11.53-3.53-.84-12.53-12.11-11.78-15.61.75-3.49,11.65-12.36,15.18-11.53s12.53,12.11,11.78,15.61Z"/>
      </g>
      <g>
        <path class="cls-1" d="M81.97,35.5c5.06,4.97,3.95,18.59-1.52,24.16-3.26,3.32-14.36,6.06-18.41,5.69,2.57-.28,3.81-8.43,5.84-10.5,4.38-4.46,8.92-13.71,4.87-17.69-4.05-3.98-14.13-.45-18.51,4.01-2.04,2.07-1.52,8.86-1.75,11.44-.44-4.04,5.56-8.21,8.82-11.53,5.47-5.57,15.6-10.54,20.66-5.57Z"/>
        <path class="cls-2" d="M72.44,59.13c-3.42,3.49-13.55,4.37-17.03.95-3.49-3.42-4.25-13.57-.83-17.06,3.42-3.49,13.55-4.37,17.03-.95s4.25,13.57.83,17.06Z"/>
        <g>
          <path class="cls-2" d="M115.75,39c-1.87.93-3.77,1.85-5.75,2.54-.92.32-1.85.6-2.81.82-1.06.26-2.14.39-3.21.42-.39-.06-.99.06-1.37-.04-.38-.1-1.09-.31-1.46-.44-1.07-.36-2.11-.79-3.12-1.26-1.75-.82-3.37-1.79-4.94-2.78-1.03-.65-2.05-1.32-3.06-1.94-1.5-1-3.05-1.91-4.65-2.72-1.05-.53-2.12-1.03-3.21-1.49-4.47-1.87-9.29-3.02-14.1-3.34-.34,0-.38.03-.71.05-.69.07-1.38.15-2.06.25-2.67.39-5.32,1.08-7.8,2.13-.28.12-.55.23-.82.36-1.25.58-2.45,1.28-3.57,2.05-1.29.9-2.46,1.92-3.49,3.04-.02,0-.23-.1-.25-.1.81-1.05,1.72-2.02,2.72-2.93.99-.9,2.07-1.73,3.21-2.49.51-.33,1.03-.65,1.56-.95,1.85-1.04,3.8-1.89,5.82-2.56.1-.03.32-.1.42-.14.15-.05.48-.04.63-.09.86-.11,1.74-.2,2.61-.25,3.89-.19,7.85.12,11.75.89,2.38.47,4.74,1.11,7.04,1.92.37.13.73.26,1.1.4,1.92.72,3.81,1.55,5.64,2.48.42.23.28.58.68.83.58.14,1.14.29,1.7.45.86.24,1.71.5,2.54.75,1.43.45,2.84.9,4.26,1.28.4.11.81.22,1.22.32,1.07.27,2.17.5,3.29.64,1.57.21,3.19.25,4.87.08.06.03.11.05.17.08.85.41,1.72.68,2.6.9.84.22,1.69.39,2.53.57-.02.02.01.24,0,.26Z"/>
          <path class="cls-2" d="M65.85,76.27c-1.02-.43-2.01-1.03-2.92-1.8-.72-.61-1.39-1.33-1.97-2.15.02-.01.16-.19.18-.2.21.08.42.16.64.23,2.37.82,4.99,1.15,7.65,1.03.64-.03,1.29-.09,1.93-.16.38,0,.53.21.91.18,1.59-.49,3.17-1.15,4.7-1.94,3.8-1.98,7.38-4.68,10.49-7.9.97-1.01,1.9-2.07,2.77-3.17,1.1-1.38,2.11-2.83,3.05-4.33.63-1.02,1.23-2.07,1.79-3.15.94-1.69,1.85-3.47,2.89-5.21.21-.35.61-1.02.84-1.36.2-.3.72-.59.93-.88.09-.08.18-.16.27-.24,1.13-.98,2.35-1.91,3.7-2.72.35-.2.7-.39,1.06-.58,1.06-.54,2.19-.99,3.35-1.29.93-.26,1.87-.45,2.81-.6,2.15-.35,4.32-.44,6.46-.51.03,0,.1.21.13.21-.58.36-1.16.71-1.72,1.11-1.71.51-3.38,1.05-4.96,1.69-1.5.59-2.89,1.35-4.18,2.2-1.26.82-2.43,1.75-3.54,2.71-1.12.97-2.18,1.99-3.25,3.03-.22.38.04.45-.18.84-.51.96-1.03,1.92-1.58,2.88-.62,1.11-1.28,2.21-1.97,3.29-1.19,1.86-2.49,3.65-3.88,5.35-.1.13-.21.26-.32.38-3.02,3.65-6.49,6.83-10.24,9.43-.14.06-.39.3-.54.37-.1.04-.34.14-.44.18-1.52.63-3.08,1.18-4.66,1.65-.87.25-1.75.47-2.63.66-1.25.26-2.51.47-3.77.6-1.27.13-2.54.19-3.8.17Z"/>
        </g>
      </g>
      <g>
        <path class="cls-1" d="M4.8,36.16c-.93-2.17,8.21-17.98,10.6-19,1.43-.61,23.1,3.77,24.3,4.4-.83-.24-6.02,20.62-6.91,21-1.92.82-17.48,4.7-16.73,6.45.74,1.74,15.5-2.5,17.41-3.32.89-.38,1.75-14.58,2.15-15.35-.38,1.3-13.81-3.33-15.23-2.72-2.39,1.02-14.65,10.71-15.58,8.54Z"/>
        <g>
          <path class="cls-2" d="M1.19,20.25c1.03-1.68,2.08-3.36,3.21-4.96.52-.75,1.06-1.48,1.61-2.2.61-.81,1.26-1.59,1.91-2.33.13-.02.67-.82.8-.83.13-.01,1.29-.08,1.42-.08,1.05-.05,2.11-.07,3.15-.07,1.79,0,3.56.08,5.32.17,1.14.06,2.26.13,3.39.2,1.68.12,3.36.21,5.04.28,1.1.04,2.21.07,3.32.09,4.56.08,9.15-.04,13.65-.35.1-.04-.64.19-.53.15.57-.32,1.13-.63,1.7-.95,2.21-1.25,4.4-2.56,6.49-3.97.24-.15.47-.3.7-.46,1.08-.72,2.13-1.48,3.16-2.23,1.18-.87,2.32-1.76,3.42-2.63.06-.03.18-.04.24-.06-.87,1.16-1.81,2.28-2.79,3.37-.97,1.1-2.01,2.14-3.05,3.2-.48.46-.96.91-1.44,1.36-1.69,1.56-3.44,3.07-5.26,4.49-.03.02-.35.27-.38.29-.04.03-.64.11-.68.14-.93.19-1.87.36-2.81.52-4.19.7-8.46,1.17-12.75,1.44-2.63.17-5.28.25-7.92.25-.42,0-.84,0-1.27,0-2.22-.02-4.45-.09-6.67-.22-.16-.03,1.13-.91.97-.94-.47.46-.95.91-1.43,1.35-.73.67-1.45,1.34-2.18,2-1.22,1.1-2.46,2.18-3.71,3.27-.35.31-.7.62-1.05.93-.92.79-1.85,1.59-2.78,2.43-1.31,1.15-2.63,2.34-3.99,3.59,0-.08.01-.15.02-.23.11-1.2.28-2.32.46-3.43.21-1.1.4-2.2.64-3.27.04-.07.03-.21.07-.28Z"/>
          <path class="cls-2" d="M60.13,2.18c-.21.89-.44,1.8-.68,2.77-.2.78-.42,1.57-.65,2.42-.04.05-.09.16-.13.21-.17.12-.34.24-.5.36-1.88,1.29-3.78,2.76-5.67,4.35-.45.38-.91.77-1.36,1.16-.12.04.19-.8.08-.75-.52,1.43-1.02,2.91-1.51,4.42-1.2,3.75-2.3,7.7-3.24,11.75-.29,1.27-.57,2.54-.83,3.83-.33,1.61-.63,3.22-.91,4.85-.19,1.11-.36,2.22-.53,3.33-.29,1.81-.56,3.64-.89,5.47-.03.13-.24,1.33-.27,1.47-.03.12-.94.54-.98.66-.09.06-.19.12-.28.18-1.16.75-2.36,1.49-3.62,2.2-.32.18-.65.36-.98.53-.97.51-1.97,1-3.01,1.44-.81.35-1.63.68-2.45.99-1.88.73-3.81,1.33-5.74,1.94-.09.02-.21-.01-.3,0-1.04.2-2.09.25-3.17.31,1.6-1.05,3.2-2.05,4.77-3.06,1.56-.97,3.05-1.99,4.53-2.98,1.46-.99,2.89-2,4.31-2.98,1.42-.99,2.81-1.98,4.22-2.96.03-.14-1,1.09-.98.94.12-1.23.26-2.47.4-3.71.17-1.44.35-2.89.56-4.33.36-2.48.77-4.95,1.25-7.4.04-.18.07-.37.11-.55,1.04-5.26,2.35-10.42,3.93-15.41.04-.04.19-.67.23-.71.03-.03.38-.34.4-.36,1.39-1.25,2.82-2.46,4.27-3.64.8-.64,1.61-1.28,2.42-1.9,1.17-.86,2.33-1.72,3.53-2.53,1.2-.81,2.41-1.59,3.67-2.32Z"/>
        </g>
        <path class="cls-2" d="M15.05,24.77c1.5-.64,16.72,2.9,17.36,4.39s-3.26,16.65-4.76,17.29c-1.5.64-16.72-2.9-17.36-4.39-.64-1.5,3.26-16.65,4.76-17.29Z"/>
      </g>
    </g>
  </g>
</svg>